<svg width="170" height="86" viewBox="0 0 170 86" fill="none" xmlns="http://www.w3.org/2000/svg">
<g filter="url(#filter0_b_18_397)">
<path d="M22.616 38.2907C22.616 37.0186 41.5912 8.56501 42.7191 8.56501L49.7552 4.03059L58.299 3.02294L72.8737 0.503815H193.995C195.123 0.503815 193.995 1.03117 193.995 2.30319V70.2475C193.995 71.5196 195.123 72.5507 193.995 72.5507H3.04738C1.91949 72.5507 1.00516 71.5196 1.00516 70.2475V50.8863L22.616 38.2907Z" fill="#FFF5F5"/>
</g>
<path fill-rule="evenodd" clip-rule="evenodd" d="M22.8927 38.4209L22.6878 38.5383L4.0176 49.2334C2.15128 50.3026 1 52.2889 1 54.4397V71.5584C1 72.1107 1.44772 72.5584 2 72.5584H72.3711H194V45.1902V39.2983V1H72.5312C72.4779 1 72.4248 1.00426 72.3721 1.01273L53.0171 4.13108C47.7895 4.97332 43.1504 7.95886 40.2183 12.368L23.0234 38.2243L22.8927 38.4209ZM3.52054 48.3657C1.34316 49.613 0 51.9304 0 54.4397V71.5584C0 72.663 0.895431 73.5584 2 73.5584H72.3711H194H195V72.5584V45.1902V39.2983V1V0H194H72.5312C72.4247 0 72.3183 0.00851483 72.2131 0.0254629L52.8581 3.14381C47.3553 4.03038 42.4721 7.17305 39.3856 11.8142L22.1907 37.6706L3.52054 48.3657ZM40.1733 72.5584C39.936 69.4473 38.5974 66.5105 36.3817 64.2894C33.93 61.8316 30.6053 60.4513 27.1392 60.4513C23.673 60.4513 20.3483 61.8316 17.8966 64.2894C15.681 66.5105 14.3424 69.4473 14.1051 72.5584L27.1392 72.5584H40.1733ZM41.176 72.5584C40.9368 69.1824 39.4926 65.9921 37.0897 63.5832C34.4507 60.9376 30.8713 59.4513 27.1392 59.4513C23.407 59.4513 19.8277 60.9376 17.1887 63.5832C14.7857 65.9921 13.3416 69.1824 13.1024 72.5584C13.0789 72.8901 13.067 73.2236 13.067 73.5584H14.067L27.1392 73.5584H40.2113H41.2113C41.2113 73.2236 41.1995 72.8901 41.176 72.5584Z" fill="#1B2A47"/>
<path fill-rule="evenodd" clip-rule="evenodd" d="M22.8927 38.4209L22.6878 38.5383L4.0176 49.2334C2.15128 50.3026 1 52.2889 1 54.4397V71.5584C1 72.1107 1.44772 72.5584 2 72.5584H72.3711H194V45.1902V39.2983V1H72.5312C72.4779 1 72.4248 1.00426 72.3721 1.01273L53.0171 4.13108C47.7895 4.97332 43.1504 7.95886 40.2183 12.368L23.0234 38.2243L22.8927 38.4209ZM3.52054 48.3657C1.34316 49.613 0 51.9304 0 54.4397V71.5584C0 72.663 0.895431 73.5584 2 73.5584H72.3711H194H195V72.5584V45.1902V39.2983V1V0H194H72.5312C72.4247 0 72.3183 0.00851483 72.2131 0.0254629L52.8581 3.14381C47.3553 4.03038 42.4721 7.17305 39.3856 11.8142L22.1907 37.6706L3.52054 48.3657ZM40.1733 72.5584C39.936 69.4473 38.5974 66.5105 36.3817 64.2894C33.93 61.8316 30.6053 60.4513 27.1392 60.4513C23.673 60.4513 20.3483 61.8316 17.8966 64.2894C15.681 66.5105 14.3424 69.4473 14.1051 72.5584L27.1392 72.5584H40.1733ZM41.176 72.5584C40.9368 69.1824 39.4926 65.9921 37.0897 63.5832C34.4507 60.9376 30.8713 59.4513 27.1392 59.4513C23.407 59.4513 19.8277 60.9376 17.1887 63.5832C14.7857 65.9921 13.3416 69.1824 13.1024 72.5584C13.0789 72.8901 13.067 73.2236 13.067 73.5584H14.067L27.1392 73.5584H40.2113H41.2113C41.2113 73.2236 41.1995 72.8901 41.176 72.5584Z" fill="#1B2A47"/>
<path d="M43.1978 24.6414C43.4196 24.06 43.9772 23.6759 44.5994 23.6759H61.3247C62.1532 23.6759 62.8247 24.3475 62.8247 25.1759V38.306C62.8247 39.1344 62.1532 39.806 61.3247 39.806H39.5915C38.5406 39.806 37.8155 38.7533 38.19 37.7714L43.1978 24.6414Z" fill="white" stroke="#1B2A47"/>
<path d="M44.7268 26.1912C44.7268 25.9151 44.9507 25.6912 45.2268 25.6912H47.2474C47.5236 25.6912 47.7474 25.9151 47.7474 26.1912V35.2754C47.7474 35.5515 47.5236 35.7754 47.2474 35.7754H45.2268C44.9507 35.7754 44.7268 35.5515 44.7268 35.2754V26.1912Z" fill="#1B2A47" stroke="#1B2A47"/>
<path d="M46.2371 40.306V35.2677" stroke="#1B2A47"/>
<ellipse cx="27.1392" cy="73.9082" rx="12.0619" ry="12.0918" fill="#1B2A47"/>
<path d="M33.6753 73.9082C33.6753 77.5288 30.7478 80.4618 27.1392 80.4618C23.5306 80.4618 20.6031 77.5288 20.6031 73.9082C20.6031 70.2876 23.5306 67.3547 27.1392 67.3547C30.7478 67.3547 33.6753 70.2876 33.6753 73.9082Z" fill="white" stroke="#FFF5F5"/>
<g clip-path="url(#clip0_18_397)">
<path d="M79.7463 21.5806C79.7708 20.634 79.7952 19.5175 79.8197 18.2796C79.8441 17.0418 79.8441 15.9253 79.8441 14.9301C79.8441 14.299 79.8441 13.6194 79.8197 12.8427C79.8197 12.0903 79.7952 11.3136 79.7952 10.5126C79.7952 10.1 79.7708 9.71166 79.7708 9.32331C79.7708 8.93496 79.7708 8.57088 79.7463 8.23108H85.4901C86.7122 8.23108 87.7143 8.32817 88.4964 8.52234C89.3029 8.71652 89.8895 9.05632 90.2806 9.51749C90.6961 9.97865 90.8916 10.6583 90.8916 11.5078C90.8916 12.1631 90.745 12.7214 90.4761 13.1583C90.2073 13.5952 89.7673 13.935 89.1563 14.1534C88.5453 14.3961 87.7387 14.5418 86.7122 14.5903V14.8087C87.812 14.8816 88.6675 15.0272 89.3274 15.2456C89.9629 15.4641 90.4517 15.8039 90.745 16.2408C91.0383 16.6777 91.1849 17.2359 91.1849 17.9398C91.1849 18.8379 90.9894 19.5418 90.6228 20.0757C90.2317 20.6097 89.6696 20.9738 88.863 21.1922C88.0809 21.4107 87.0543 21.532 85.7589 21.532H79.7463V21.5806ZM85.2212 13.935C86.2722 13.935 87.0299 13.7893 87.4943 13.4981C87.9587 13.2068 88.1786 12.7214 88.1786 12.0418C88.1786 11.2893 87.9342 10.7554 87.4698 10.4398C87.0054 10.1243 86.2478 9.97865 85.2457 9.97865H82.386V13.935H85.2212ZM85.3923 19.6874C86.1744 19.6874 86.7855 19.6146 87.2499 19.4689C87.7143 19.3233 88.032 19.1049 88.252 18.7893C88.4719 18.4738 88.5697 18.0612 88.5697 17.5272C88.5697 16.799 88.3008 16.2893 87.7876 15.9981C87.2499 15.7068 86.4189 15.5612 85.2457 15.5612H82.386V19.6874H85.3923Z" fill="#1B2A47"/>
<path d="M96.0242 21.8233C94.7043 21.8233 93.6778 21.5806 92.9934 21.0709C92.3091 20.5612 91.918 19.8088 91.8447 18.7893C91.7714 17.7699 92.0158 16.4835 92.5535 14.9544C93.0912 13.4253 93.7511 12.1631 94.5577 11.1437C95.3643 10.1243 96.2686 9.37187 97.3196 8.86216C98.3706 8.30391 99.5438 8.06119 100.839 8.06119C102.159 8.06119 103.161 8.32818 103.845 8.83789C104.53 9.3476 104.921 10.1243 104.994 11.1437C105.068 12.1631 104.823 13.4495 104.285 14.9787C103.748 16.4835 103.088 17.7699 102.281 18.7893C101.475 19.8088 100.546 20.5612 99.5193 21.0709C98.4683 21.5563 97.2951 21.8233 96.0242 21.8233ZM96.6841 19.9301C97.2218 19.9301 97.6373 19.8816 97.8329 19.833C98.0039 19.7845 98.2484 19.7359 98.5417 19.566C98.7616 19.4447 98.9083 19.3233 99.006 19.2262C99.1771 19.0806 99.2749 18.9835 99.3727 18.8864C99.5438 18.7165 99.666 18.5466 99.7882 18.401C100.081 18.0369 100.326 17.6728 100.595 17.2359C100.79 16.8961 100.986 16.5563 101.157 16.168C101.328 15.8039 101.475 15.4156 101.621 15.0272C101.988 14.0321 102.183 13.134 102.183 12.3816C102.183 11.6291 102.012 11.0466 101.67 10.6097C101.328 10.1971 100.79 9.97866 100.081 9.97866C99.6904 9.97866 99.2993 10.0272 98.8838 10.1486C98.8838 10.1486 98.8838 10.1486 98.8594 10.1486C98.0039 10.3913 97.2463 11.168 97.1485 11.2893C97.0507 11.3864 96.7574 11.7262 96.3419 12.4058C95.8042 13.3039 95.462 14.1291 95.2176 14.833C94.8754 15.8282 94.6799 16.7262 94.6555 17.4787C94.631 18.2311 94.8021 18.8379 95.1443 19.2748C95.4865 19.7117 95.9997 19.9301 96.6841 19.9301Z" fill="#1B2A47"/>
<path d="M90.8428 40.1C89.5229 40.1 88.4964 39.8573 87.812 39.3476C87.1277 38.8379 86.7366 38.0854 86.6633 37.066C86.5899 36.0466 86.8344 34.7602 87.3721 33.2311C87.9098 31.7019 88.5697 30.4398 89.3763 29.4204C90.1828 28.401 91.0872 27.6485 92.1382 27.1388C93.1891 26.6291 94.3623 26.3864 95.6333 26.3864C96.9531 26.3864 97.9552 26.6534 98.6396 27.1631C99.3239 27.6728 99.715 28.4495 99.7883 29.4689C99.8617 30.4884 99.6172 31.7748 99.0795 33.3039C98.5418 34.8087 97.8819 36.0951 97.0753 37.1146C96.2688 38.134 95.34 38.8864 94.3134 39.3961C93.2869 39.9058 92.1137 40.1 90.8428 40.1ZM91.5027 38.2068C92.0404 38.2068 92.4559 38.1583 92.6514 38.1097C92.8225 38.0612 93.0669 38.0126 93.3602 37.8427C93.5802 37.7214 93.7269 37.6 93.8246 37.5029C93.9957 37.3573 94.0935 37.2602 94.1912 37.1631C94.3623 36.9932 94.4845 36.8233 94.6067 36.6777C94.9 36.3136 95.1445 35.9495 95.4133 35.5126C95.6088 35.1728 95.8044 34.833 95.9755 34.4447C96.1466 34.0806 96.2932 33.6922 96.4399 33.3039C96.8065 32.3087 97.002 31.4107 97.002 30.6583C97.002 29.9058 96.8309 29.3233 96.4887 28.8864C96.1466 28.4738 95.6088 28.2553 94.9 28.2553C94.509 28.2553 94.1179 28.3039 93.7024 28.4252C93.7024 28.4252 93.7024 28.4252 93.678 28.4252C92.8225 28.668 92.0648 29.4447 91.9671 29.566C91.8693 29.6631 91.576 30.0029 91.1605 30.6825C90.6228 31.5806 90.2806 32.4058 90.0362 33.1097C89.694 34.1049 89.4985 35.0029 89.474 35.7553C89.4496 36.5078 89.6207 37.1146 89.9629 37.5515C90.305 37.9884 90.8183 38.2068 91.5027 38.2068Z" fill="#1B2A47"/>
<path d="M125.281 40.1243C123.961 40.1243 122.935 39.8816 122.25 39.3719C121.566 38.8622 121.175 38.1098 121.101 37.0903C121.028 36.0709 121.273 34.7845 121.81 33.2554C122.348 31.7263 123.008 30.4641 123.814 29.4447C124.621 28.4253 125.525 27.6729 126.576 27.1632C127.627 26.6535 128.8 26.4107 130.071 26.4107C131.391 26.4107 132.393 26.6777 133.078 27.1874C133.762 27.6971 134.153 28.4738 134.226 29.4933C134.3 30.5127 134.055 31.7991 133.518 33.3282C132.98 34.8331 132.32 36.1195 131.513 37.1389C130.707 38.1583 129.778 38.9107 128.752 39.4204C127.725 39.9302 126.552 40.1243 125.281 40.1243ZM125.941 38.2554C126.479 38.2554 126.894 38.2069 127.09 38.1583C127.261 38.1098 127.505 38.0612 127.798 37.8913C128.018 37.77 128.165 37.6486 128.263 37.5515C128.434 37.4059 128.532 37.3088 128.629 37.2117C128.8 37.0418 128.923 36.8719 129.045 36.7263C129.338 36.3622 129.583 35.9981 129.851 35.5612C130.047 35.2214 130.243 34.8816 130.414 34.4933C130.585 34.1292 130.731 33.7408 130.878 33.3525C131.245 32.3573 131.44 31.4593 131.44 30.7069C131.44 29.9544 131.269 29.3719 130.927 28.935C130.585 28.5224 130.047 28.3039 129.338 28.3039C128.947 28.3039 128.556 28.3525 128.141 28.4738C128.141 28.4738 128.141 28.4738 128.116 28.4738C127.261 28.7166 126.503 29.4933 126.405 29.6146C126.307 29.7117 126.014 30.0515 125.599 30.7311C125.061 31.6292 124.719 32.4544 124.474 33.1583C124.132 34.1535 123.937 35.0515 123.912 35.8039C123.888 36.5564 124.059 37.1632 124.401 37.6001C124.743 38.037 125.256 38.2554 125.941 38.2554Z" fill="#FF515E"/>
<path d="M106.094 21.5806C106.094 21.2894 106.094 20.8039 106.119 20.0758C106.143 19.202 106.168 18.3282 106.168 17.4544C106.168 16.5806 106.192 15.7311 106.192 14.9544C106.192 13.6194 106.168 12.236 106.143 10.8039C106.143 10.3427 106.119 9.90586 106.119 9.46896C106.119 9.03207 106.094 8.61945 106.094 8.25537H111.814C113.036 8.25537 114.062 8.35246 114.82 8.57091C115.602 8.78935 116.189 9.15343 116.58 9.66314C116.971 10.1971 117.166 10.9253 117.166 11.8476C117.166 12.6728 117.02 13.3525 116.702 13.8864C116.409 14.4204 115.944 14.8088 115.358 15.0758C114.771 15.3427 114.038 15.4641 113.158 15.4884V15.7068C114.307 15.7554 115.162 15.9981 115.724 16.435C116.287 16.8719 116.678 17.5758 116.922 18.5224C116.995 18.8622 117.118 19.3719 117.313 20.0515C117.509 20.7311 117.655 21.2408 117.777 21.5806H114.918C114.869 21.3379 114.796 21.0466 114.698 20.7311C114.429 19.6389 114.258 18.9107 114.209 18.5466C114.062 18.0127 113.867 17.6243 113.671 17.333C113.451 17.0418 113.182 16.8476 112.865 16.7262C112.523 16.6049 112.083 16.5321 111.52 16.5321H108.734C108.734 17.0661 108.734 17.6 108.734 18.1826C108.734 18.7651 108.734 19.3476 108.734 19.9544V21.5563H106.094V21.5806ZM111.398 14.6874C112.523 14.6874 113.305 14.5175 113.793 14.1777C114.258 13.8379 114.502 13.2554 114.502 12.4544C114.502 11.8476 114.38 11.3622 114.16 11.0224C113.94 10.6826 113.598 10.4398 113.158 10.2942C112.718 10.1486 112.131 10.0758 111.398 10.0758H108.734V14.6631H111.398V14.6874Z" fill="#1B2A47"/>
<path d="M119.781 21.5806L119.806 19.2991C119.83 17.2602 119.83 15.2214 119.83 13.134C119.83 11.969 119.806 10.3427 119.757 8.25537H123.179L128.14 16.8476C128.214 17.0418 128.311 17.2117 128.385 17.3816C128.482 17.5515 128.556 17.7214 128.653 17.8913C128.971 18.5466 129.167 18.935 129.216 19.0321H129.436C129.436 18.9835 129.411 18.9107 129.411 18.8622C129.411 18.8136 129.387 18.7651 129.387 18.7165C129.338 18.3767 129.289 18.0127 129.24 17.6243C129.191 17.236 129.167 16.8961 129.167 16.5563C129.167 15.2699 129.167 13.4495 129.142 11.0952C129.142 10.5612 129.142 10.0758 129.142 9.59032C129.142 9.10489 129.118 8.66799 129.118 8.27964H131.611C131.586 10.3427 131.562 12.5029 131.562 14.736C131.562 16.1437 131.562 18.4253 131.586 21.6292H128.214L123.545 13.7894C122.812 12.2845 122.519 11.702 122.665 12.0175C122.445 11.5078 122.274 11.1194 122.152 10.8039H121.932C121.981 11.0952 122.03 11.5321 122.079 12.0903C122.128 12.6728 122.177 13.0612 122.177 13.3039C122.177 15.7796 122.177 18.5466 122.201 21.6049H119.781V21.5806Z" fill="#1B2A47"/>
<path d="M82.3371 39.8816C82.3616 37.6971 82.386 35.5126 82.386 33.3282C82.386 32.0175 82.386 30.4155 82.3616 28.5466C81.4328 28.5466 80.113 28.5466 78.4021 28.5709V26.532H89.0097V28.5709C87.3721 28.5466 86.0522 28.5466 85.0257 28.5466C85.0257 29.032 85.0013 29.566 85.0013 30.1728C85.0013 30.7796 85.0013 31.3864 84.9768 32.0175V33.5466C84.9768 35.6825 85.0013 37.7942 85.0257 39.8816H82.3371Z" fill="#1B2A47"/>
<path d="M103.064 39.8815C103.406 39.0078 103.724 38.134 104.041 37.2359C104.359 36.3379 104.701 35.4398 105.019 34.5417C105.532 33.134 105.899 32.0903 106.143 31.4107L107.194 28.3767C107.292 28.0612 107.414 27.7214 107.512 27.4301C107.61 27.1146 107.732 26.8233 107.83 26.5563H111.691L111.129 37.2845H111.349L118.315 26.5563H122.226L121.639 28.1097C120.906 30.1485 120.515 31.2408 120.441 31.4349C119.122 35.2456 118.193 38.0612 117.606 39.8815H115.138C115.382 39.1777 115.798 38.0369 116.36 36.4835C116.506 36.0466 116.653 35.5854 116.824 35.1485C116.971 34.7116 117.142 34.2505 117.289 33.8379C117.826 32.333 118.413 30.6582 119.024 28.8379H118.828L111.52 39.9058H109.125L109.589 28.8379H109.443C109.296 29.2505 109.125 29.6631 108.978 30.0757C108.832 30.4883 108.661 30.9252 108.514 31.3621C108.099 32.4786 107.805 33.3039 107.61 33.8621C107.488 34.1777 107.39 34.4932 107.268 34.8087C107.17 35.1243 107.048 35.4155 106.925 35.7311C106.339 37.3087 105.85 38.7165 105.459 39.9301H103.064V39.8815Z" fill="#FF515E"/>
<path d="M135.399 39.8816C135.546 38.0612 135.668 36.1195 135.79 34.0563C135.839 33.3039 135.962 30.8039 136.181 26.5321H138.821C138.797 26.8962 138.772 27.3088 138.748 27.7457C138.723 28.1826 138.699 28.6437 138.675 29.1534C138.577 31.1923 138.455 33.0127 138.332 34.6874C138.21 36.3379 138.039 37.6729 137.843 38.668H137.99C138.552 37.6 139.334 36.2651 140.337 34.6631C141.339 33.0612 142.585 31.0952 144.076 28.7894C144.345 28.3767 144.614 27.9641 144.858 27.5758C145.103 27.1874 145.323 26.8476 145.543 26.5321H148.28C147.962 26.9932 147.645 27.4787 147.327 27.9884C146.985 28.4981 146.667 29.0321 146.325 29.5903C143.074 34.5903 140.899 38.0127 139.75 39.8573H135.399V39.8816Z" fill="#FF515E"/>
<path d="M144.663 39.8815C144.932 39.2262 145.298 38.2068 145.811 36.8476C146.325 35.4883 146.765 34.2748 147.131 33.2553C147.498 32.2116 147.889 31.0709 148.305 29.8573C148.72 28.6437 149.087 27.5515 149.404 26.5563H158.888L158.179 28.5223H151.36L149.967 32.5515L156.37 32.4786L155.857 33.8864L149.502 33.8136L148.036 37.9155H154.977L154.268 39.8815H144.663Z" fill="#FF515E"/>
</g>
<path d="M79.2501 52.3289C79.2714 50.8783 79.2821 49.7796 79.2821 49.0329L79.2741 47.6169C79.2687 47.3023 79.2661 46.8383 79.2661 46.2249H80.0981L82.3061 51.6729H82.3461L84.5381 46.2249H85.3701C85.3541 47.1583 85.3461 48.0943 85.3461 49.0329C85.3461 50.0303 85.3594 51.1289 85.3861 52.3289H84.8581C84.8634 51.8703 84.8661 51.1743 84.8661 50.2409V49.3609C84.8661 48.7796 84.8607 47.9289 84.8501 46.8089H84.7941L82.5621 52.3289H82.0821L79.8341 46.8089H79.7861L79.7781 47.6329C79.7674 48.4009 79.7621 48.9769 79.7621 49.3609C79.7621 50.6996 79.7647 51.6889 79.7701 52.3289H79.2501ZM89.4302 52.4249C88.5609 52.4249 87.8862 52.1529 87.4062 51.6089C86.9315 51.0649 86.6942 50.2916 86.6942 49.2889C86.6942 48.2916 86.9342 47.5209 87.4142 46.9769C87.8942 46.4276 88.5635 46.1529 89.4222 46.1529C90.2862 46.1529 90.9555 46.4249 91.4302 46.9689C91.9102 47.5129 92.1502 48.2863 92.1502 49.2889C92.1502 50.2863 91.9102 51.0596 91.4302 51.6089C90.9555 52.1529 90.2889 52.4249 89.4302 52.4249ZM89.4382 52.0009C89.9555 52.0009 90.3769 51.8916 90.7022 51.6729C90.9955 51.4329 91.2195 51.1129 91.3742 50.7129C91.5342 50.3129 91.6142 49.8409 91.6142 49.2969C91.6142 48.7263 91.5235 48.2383 91.3422 47.8329C91.1662 47.4223 90.9129 47.1129 90.5822 46.9049C90.2569 46.6916 89.8675 46.5849 89.4142 46.5849C88.8489 46.5849 88.3849 46.7236 88.0222 47.0009C87.4942 47.5023 87.2302 48.2596 87.2302 49.2729C87.2302 49.8436 87.3209 50.3343 87.5022 50.7449C87.6835 51.1556 87.9395 51.4676 88.2702 51.6809C88.6009 51.8943 88.9902 52.0009 89.4382 52.0009ZM94.8019 52.3289C93.9859 50.0943 93.2259 48.0596 92.5219 46.2249H93.0819C93.1885 46.5343 93.4339 47.1903 93.8179 48.1929C94.5592 50.1556 95.0125 51.4036 95.1779 51.9369H95.2179C95.4579 51.1903 96.0925 49.4489 97.1219 46.7129L97.3059 46.2249H97.8739C97.0952 48.2516 96.3299 50.2863 95.5779 52.3289H94.8019ZM98.836 52.3289C98.8467 50.9743 98.852 49.9583 98.852 49.2809C98.852 48.6089 98.8467 47.5903 98.836 46.2249H99.396C99.3747 47.1263 99.364 48.1449 99.364 49.2809C99.364 50.4169 99.3747 51.4329 99.396 52.3289H98.836ZM101.102 51.3289C101.107 50.8596 101.11 49.7503 101.11 48.0009C101.11 47.5316 101.104 46.9396 101.094 46.2249H101.75L104.75 50.7449C105.064 51.2409 105.259 51.5636 105.334 51.7129H105.398C105.339 51.1476 105.31 50.6809 105.31 50.3129C105.31 48.5049 105.302 47.1423 105.286 46.2249H105.814C105.798 47.0783 105.79 48.0409 105.79 49.1129C105.79 49.8063 105.795 50.8783 105.806 52.3289H105.19L102.326 48.0249C101.958 47.4543 101.712 47.0489 101.59 46.8089H101.518C101.571 47.3529 101.598 47.7556 101.598 48.0169C101.598 49.5049 101.603 50.9423 101.614 52.3289H101.102V51.3289ZM109.772 52.4249C109.239 52.4249 108.772 52.3049 108.372 52.0649C107.977 51.8196 107.671 51.4623 107.452 50.9929C107.233 50.5183 107.124 49.9503 107.124 49.2889C107.124 48.6276 107.231 48.0623 107.444 47.5929C107.663 47.1236 107.975 46.7663 108.38 46.5209C108.785 46.2756 109.271 46.1529 109.836 46.1529C110.615 46.1529 111.196 46.3396 111.58 46.7129C111.964 47.0809 112.212 47.6116 112.324 48.3049L111.788 48.3849C111.676 47.8036 111.468 47.3583 111.164 47.0489C110.865 46.7343 110.42 46.5769 109.828 46.5769C109.3 46.5769 108.855 46.7129 108.492 46.9849C107.937 47.4969 107.66 48.2543 107.66 49.2569C107.66 49.8276 107.753 50.3209 107.94 50.7369C108.127 51.1529 108.385 51.4703 108.716 51.6889C109.047 51.9023 109.428 52.0089 109.86 52.0089C110.404 52.0089 110.831 51.8863 111.14 51.6409C111.257 51.5503 111.369 51.4196 111.476 51.2489C111.583 51.0783 111.668 50.9049 111.732 50.7289C111.796 50.5476 111.831 50.4036 111.836 50.2969C111.836 50.1849 111.833 50.0996 111.828 50.0409C111.828 49.9983 111.825 49.9556 111.82 49.9129C111.82 49.8649 111.823 49.8409 111.828 49.8409H110.196V49.4649H112.34C112.335 49.7049 112.335 49.9769 112.34 50.2809C112.351 50.5796 112.356 50.7956 112.356 50.9289C112.372 51.7609 112.38 52.2276 112.38 52.3289H111.884L111.892 50.8089H111.86C111.732 51.3529 111.495 51.7583 111.148 52.0249C110.807 52.2916 110.348 52.4249 109.772 52.4249ZM118.188 52.4249C117.324 52.4249 116.654 52.1529 116.18 51.6089C115.705 51.0596 115.468 50.2863 115.468 49.2889C115.468 48.2863 115.705 47.5129 116.18 46.9689C116.654 46.4249 117.324 46.1529 118.188 46.1529C118.897 46.1529 119.462 46.3369 119.884 46.7049C120.305 47.0676 120.588 47.5929 120.732 48.2809L120.212 48.3609C119.95 47.1769 119.26 46.5849 118.14 46.5849C117.585 46.5849 117.132 46.7236 116.78 47.0009C116.529 47.2516 116.337 47.5743 116.204 47.9689C116.07 48.3583 116.004 48.8089 116.004 49.3209C116.004 50.1849 116.201 50.8489 116.596 51.3129C116.99 51.7716 117.537 52.0009 118.236 52.0009C118.737 52.0009 119.145 51.8916 119.46 51.6729C119.769 51.4223 119.996 51.0356 120.14 50.5129H120.676C120.516 51.1316 120.228 51.6063 119.812 51.9369C119.396 52.2623 118.854 52.4249 118.188 52.4249ZM124.399 52.4249C123.53 52.4249 122.855 52.1529 122.375 51.6089C121.9 51.0649 121.663 50.2916 121.663 49.2889C121.663 48.2916 121.903 47.5209 122.383 46.9769C122.863 46.4276 123.532 46.1529 124.391 46.1529C125.255 46.1529 125.924 46.4249 126.399 46.9689C126.879 47.5129 127.119 48.2863 127.119 49.2889C127.119 50.2863 126.879 51.0596 126.399 51.6089C125.924 52.1529 125.258 52.4249 124.399 52.4249ZM124.407 52.0009C124.924 52.0009 125.346 51.8916 125.671 51.6729C125.964 51.4329 126.188 51.1129 126.343 50.7129C126.503 50.3129 126.583 49.8409 126.583 49.2969C126.583 48.7263 126.492 48.2383 126.311 47.8329C126.135 47.4223 125.882 47.1129 125.551 46.9049C125.226 46.6916 124.836 46.5849 124.383 46.5849C123.818 46.5849 123.354 46.7236 122.991 47.0009C122.463 47.5023 122.199 48.2596 122.199 49.2729C122.199 49.8436 122.29 50.3343 122.471 50.7449C122.652 51.1556 122.908 51.4676 123.239 51.6809C123.57 51.8943 123.959 52.0009 124.407 52.0009ZM128.438 52.3289C128.459 50.8783 128.47 49.7796 128.47 49.0329L128.462 47.6169C128.456 47.3023 128.454 46.8383 128.454 46.2249H129.286L131.494 51.6729H131.534L133.726 46.2249H134.558C134.542 47.1583 134.534 48.0943 134.534 49.0329C134.534 50.0303 134.547 51.1289 134.574 52.3289H134.046C134.051 51.8703 134.054 51.1743 134.054 50.2409V49.3609C134.054 48.7796 134.048 47.9289 134.038 46.8089H133.982L131.75 52.3289H131.27L129.022 46.8089H128.974L128.966 47.6329C128.955 48.4009 128.95 48.9769 128.95 49.3609C128.95 50.6996 128.952 51.6889 128.958 52.3289H128.438ZM136.266 52.3289C136.276 50.9849 136.282 49.9689 136.282 49.2809C136.282 48.5769 136.276 47.5583 136.266 46.2249H138.298C139.114 46.2249 139.732 46.3636 140.154 46.6409C140.575 46.9183 140.786 47.4169 140.786 48.1369C140.786 48.7929 140.607 49.2756 140.25 49.5849C139.898 49.8889 139.359 50.0409 138.634 50.0409H136.802C136.802 50.9956 136.81 51.7583 136.826 52.3289H136.266ZM138.418 49.6569C139.01 49.6569 139.466 49.5396 139.786 49.3049C140.111 49.0703 140.274 48.6916 140.274 48.1689C140.274 47.6356 140.116 47.2463 139.802 47.0009C139.487 46.7556 139.028 46.6329 138.426 46.6329H136.818C136.807 47.3689 136.802 48.3769 136.802 49.6569H138.418ZM145.527 52.3289C145.415 52.0143 145.189 51.4143 144.847 50.5289H143.359H141.887C141.605 51.3023 141.383 51.9023 141.223 52.3289H140.631L140.959 51.4729C142.005 48.7796 142.671 47.0303 142.959 46.2249H143.759C144.271 47.6063 145.053 49.6409 146.103 52.3289H145.527ZM144.719 50.1849C144.021 48.3556 143.581 47.1369 143.399 46.5289H143.327C142.954 47.5956 142.517 48.8143 142.015 50.1849H144.719ZM147.071 51.3289C147.076 50.8596 147.079 49.7503 147.079 48.0009C147.079 47.5316 147.073 46.9396 147.063 46.2249H147.719L150.719 50.7449C151.033 51.2409 151.228 51.5636 151.303 51.7129H151.367C151.308 51.1476 151.279 50.6809 151.279 50.3129C151.279 48.5049 151.271 47.1423 151.255 46.2249H151.783C151.767 47.0783 151.759 48.0409 151.759 49.1129C151.759 49.8063 151.764 50.8783 151.775 52.3289H151.159L148.295 48.0249C147.927 47.4543 147.681 47.0489 147.559 46.8089H147.487C147.54 47.3529 147.567 47.7556 147.567 48.0169C147.567 49.5049 147.572 50.9423 147.583 52.3289H147.071V51.3289ZM155.221 50.1769H155.109L155.125 50.1529C155.045 50.1689 154.957 50.1769 154.861 50.1769C154.807 50.1769 154.762 50.1609 154.725 50.1289C154.693 50.0969 154.655 50.0356 154.613 49.9449C154.405 49.5449 154.031 48.8063 153.493 47.7289L152.741 46.2249H153.317L155.141 49.9209H155.253L156.861 46.2249H157.445L154.829 52.2169C154.807 52.2649 154.775 52.2969 154.733 52.3129C154.69 52.3236 154.621 52.3289 154.525 52.3289H154.189L155.109 50.2889L155.221 50.1769Z" fill="#7C8494"/>
<defs>
<filter id="filter0_b_18_397" x="-91.9948" y="-92.4962" width="379.491" height="258.047" filterUnits="userSpaceOnUse" color-interpolation-filters="sRGB">
<feFlood flood-opacity="0" result="BackgroundImageFix"/>
<feGaussianBlur in="BackgroundImageFix" stdDeviation="46.5"/>
<feComposite in2="SourceAlpha" operator="in" result="effect1_backgroundBlur_18_397"/>
<feBlend mode="normal" in="SourceGraphic" in2="effect1_backgroundBlur_18_397" result="shape"/>
</filter>
<clipPath id="clip0_18_397">
<rect width="80.4124" height="33.2524" fill="white" transform="translate(78.4021 8.06119)"/>
</clipPath>
</defs>
</svg>
