<svg width="191" height="86" viewBox="0 0 191 86" fill="none" xmlns="http://www.w3.org/2000/svg">
<g filter="url(#filter0_b_18_404)">
<path fill-rule="evenodd" clip-rule="evenodd" d="M250.984 1.01176H64.51C63.9533 1.01176 63.502 1.46475 63.502 2.02353V61.7177C63.502 62.2764 63.9533 62.7294 64.51 62.7294H250.984C251.541 62.7294 251.992 62.2764 251.992 61.7177V2.02353C251.992 1.46475 251.541 1.01176 250.984 1.01176ZM64.51 0C63.3966 0 62.494 0.905965 62.494 2.02353V61.7177C62.494 62.8352 63.3966 63.7412 64.51 63.7412H250.984C252.097 63.7412 253 62.8352 253 61.7177V2.02353C253 0.905965 252.097 0 250.984 0H64.51Z" fill="#1B2A47"/>
</g>
<path fill-rule="evenodd" clip-rule="evenodd" d="M34.277 15.4798C27.9656 15.4798 22.0594 18.601 18.4876 23.8241L4.36999 44.468C2.18011 47.6702 1.00797 51.4632 1.00797 55.3473V63.741C1.00797 68.7701 5.06951 72.8469 10.0797 72.8469H20.5131C21.0691 70.4939 22.2659 68.3198 23.9973 66.5819C26.4547 64.1152 29.7877 62.7294 33.2629 62.7294C36.7382 62.7294 40.0712 64.1152 42.5286 66.5819C44.26 68.3198 45.4568 70.4939 46.0128 72.8469H57.4542V16.4915C57.4542 15.9328 57.0029 15.4798 56.4462 15.4798H34.277ZM45.1894 73.8587C44.7735 71.3894 43.6033 69.0915 41.8158 67.2973C39.5475 65.0204 36.4709 63.7412 33.2629 63.7412C30.055 63.7412 26.9784 65.0204 24.7101 67.2973C22.9226 69.0915 21.7523 71.3894 21.3365 73.8587H10.0797C4.51283 73.8587 0 69.3288 0 63.741V55.3473C0 51.2588 1.23383 47.2662 3.53897 43.8954L17.6566 23.2515C21.4164 17.7536 27.6334 14.468 34.277 14.468H56.4462C57.5596 14.468 58.4621 15.374 58.4621 16.4915V72.8469V73.8587H57.4542H45.1894ZM41.8757 72.8469C41.4266 71.5633 40.6942 70.3837 39.7176 69.4035C38.0057 67.6851 35.6839 66.7198 33.2629 66.7198C30.842 66.7198 28.5202 67.6851 26.8083 69.4035C25.8317 70.3837 25.0993 71.5633 24.6502 72.8469H41.8757ZM42.9375 72.8469C42.4532 71.2918 41.5993 69.8614 40.4303 68.688C38.5294 66.78 35.9512 65.708 33.2629 65.708C30.5747 65.708 27.9965 66.78 26.0956 68.688C24.9266 69.8614 24.0727 71.2918 23.5884 72.8469C23.485 73.1789 23.3984 73.5166 23.3293 73.8587H24.3601H42.1658H43.1966C43.1275 73.5166 43.0409 73.1789 42.9375 72.8469Z" fill="#1B2A47"/>
<path fill-rule="evenodd" clip-rule="evenodd" d="M47.3745 24.2823H26.9964C25.6011 24.2823 24.305 25.0065 23.5697 26.1968L14.1956 41.3733C12.5303 44.0693 14.4621 47.5529 17.6223 47.5529H47.3745C49.6012 47.5529 51.4064 45.741 51.4064 43.5059V28.3294C51.4064 26.0943 49.6012 24.2823 47.3745 24.2823ZM26.9964 23.2706C25.2523 23.2706 23.6321 24.1758 22.713 25.6637L13.3389 40.8402C11.2574 44.2102 13.672 48.5647 17.6223 48.5647H47.3745C50.1579 48.5647 52.4143 46.2998 52.4143 43.5059V28.3294C52.4143 25.5355 50.1579 23.2706 47.3745 23.2706H26.9964Z" fill="#1B2A47"/>
<path d="M21.1673 34.4C21.1673 33.8412 21.6186 33.3882 22.1753 33.3882H24.1912C24.7479 33.3882 25.1992 33.8412 25.1992 34.4V43.5059C25.1992 44.0647 24.7479 44.5177 24.1912 44.5177H22.1753C21.6186 44.5177 21.1673 44.0647 21.1673 43.5059V34.4Z" fill="#1B2A47"/>
<path fill-rule="evenodd" clip-rule="evenodd" d="M24.1912 34.4H22.1753V43.5059H24.1912V34.4ZM22.1753 33.3882C21.6186 33.3882 21.1673 33.8412 21.1673 34.4V43.5059C21.1673 44.0647 21.6186 44.5177 22.1753 44.5177H24.1912C24.7479 44.5177 25.1992 44.0647 25.1992 43.5059V34.4C25.1992 33.8412 24.7479 33.3882 24.1912 33.3882H22.1753Z" fill="#1B2A47"/>
<path fill-rule="evenodd" clip-rule="evenodd" d="M23.6872 26.3058L23.6872 34.4L22.6793 34.4L22.6793 26.3058L23.6872 26.3058Z" fill="#1B2A47"/>
<path fill-rule="evenodd" clip-rule="evenodd" d="M23.6872 43.5059V48.5647H22.6793V43.5059H23.6872Z" fill="#1B2A47"/>
<path d="M43.3427 75.8824C43.3427 81.4702 38.8298 86 33.263 86C27.6961 86 23.1833 81.4702 23.1833 75.8824C23.1833 70.2945 27.6961 65.7647 33.263 65.7647C38.8298 65.7647 43.3427 70.2945 43.3427 75.8824Z" fill="#1B2A47"/>
<path d="M38.3028 75.8824C38.3028 78.6763 36.0464 80.9412 33.2629 80.9412C30.4795 80.9412 28.2231 78.6763 28.2231 75.8824C28.2231 73.0885 30.4795 70.8235 33.2629 70.8235C36.0464 70.8235 38.3028 73.0885 38.3028 75.8824Z" fill="white"/>
<path fill-rule="evenodd" clip-rule="evenodd" d="M33.2629 79.9294C35.4897 79.9294 37.2948 78.1175 37.2948 75.8824C37.2948 73.6472 35.4897 71.8353 33.2629 71.8353C31.0362 71.8353 29.2311 73.6472 29.2311 75.8824C29.2311 78.1175 31.0362 79.9294 33.2629 79.9294ZM33.2629 80.9412C36.0464 80.9412 38.3028 78.6763 38.3028 75.8824C38.3028 73.0885 36.0464 70.8235 33.2629 70.8235C30.4795 70.8235 28.2231 73.0885 28.2231 75.8824C28.2231 78.6763 30.4795 80.9412 33.2629 80.9412Z" fill="#FFF5F5"/>
<path fill-rule="evenodd" clip-rule="evenodd" d="M62.4208 65.7647C60.7732 65.7647 59.8214 67.6409 60.7905 68.9784L61.8922 70.499C62.2704 71.0209 62.8739 71.3305 63.5169 71.3323L103.858 71.4457C103.833 71.5718 103.821 71.702 103.821 71.8353C103.821 72.9529 104.723 73.8588 105.837 73.8588H229.817C230.93 73.8588 231.833 72.9529 231.833 71.8353C231.833 71.8254 231.832 71.8154 231.832 71.8055L241.255 71.832C241.974 71.8341 242.639 71.4515 243.002 70.8281L244.176 68.8078C244.96 67.4588 243.99 65.7647 242.434 65.7647H62.4208Z" fill="#424C60"/>
<g clip-path="url(#clip0_18_404)">
<path d="M79.9695 21.6687C79.9941 20.7183 80.0186 19.5972 80.0431 18.3543C80.0676 17.1114 80.0676 15.9903 80.0676 14.9911C80.0676 14.3575 80.0676 13.6751 80.0431 12.8952C80.0431 12.1397 80.0186 11.3598 80.0186 10.5556C80.0186 10.1413 79.9941 9.75134 79.9941 9.3614C79.9941 8.97147 79.9941 8.6059 79.9695 8.26471H85.7294C86.9549 8.26471 87.9598 8.36219 88.7441 8.55716C89.5529 8.75213 90.1411 9.09332 90.5333 9.55637C90.95 10.0194 91.146 10.7018 91.146 11.5548C91.146 12.2128 90.999 12.7733 90.7294 13.212C90.4598 13.6507 90.0186 13.9919 89.4058 14.2112C88.7931 14.4549 87.9843 14.6012 86.9549 14.6499V14.8692C88.0578 14.9424 88.9156 15.0886 89.5774 15.3079C90.2147 15.5273 90.7049 15.8685 90.999 16.3071C91.2931 16.7458 91.4402 17.3063 91.4402 18.0131C91.4402 18.9148 91.2441 19.6216 90.8764 20.1577C90.4843 20.6939 89.9205 21.0595 89.1117 21.2788C88.3274 21.4981 87.298 21.62 85.999 21.62H79.9695V21.6687ZM85.4598 13.9919C86.5137 13.9919 87.2735 13.8457 87.7392 13.5532C88.2049 13.2608 88.4254 12.7733 88.4254 12.091C88.4254 11.3355 88.1803 10.7993 87.7147 10.4825C87.249 10.1656 86.4892 10.0194 85.4843 10.0194H82.6166V13.9919H85.4598ZM85.6313 19.7678C86.4156 19.7678 87.0284 19.6947 87.4941 19.5485C87.9598 19.4022 88.2784 19.1829 88.499 18.8661C88.7196 18.5493 88.8176 18.135 88.8176 17.5988C88.8176 16.8677 88.548 16.3559 88.0333 16.0634C87.4941 15.771 86.6607 15.6247 85.4843 15.6247H82.6166V19.7678H85.6313Z" fill="#1B2A47"/>
<path d="M96.293 21.9125C94.9695 21.9125 93.9401 21.6687 93.2538 21.157C92.5675 20.6452 92.1753 19.8897 92.1018 18.8661C92.0283 17.8425 92.2734 16.5508 92.8126 15.0155C93.3518 13.4801 94.0136 12.2128 94.8224 11.1892C95.6312 10.1656 96.5381 9.41015 97.592 8.89836C98.6459 8.33783 99.8224 8.09412 101.121 8.09412C102.445 8.09412 103.45 8.3622 104.136 8.87399C104.822 9.38578 105.215 10.1656 105.288 11.1892C105.362 12.2128 105.117 13.5045 104.577 15.0398C104.038 16.5508 103.376 17.8425 102.568 18.8661C101.759 19.8897 100.827 20.6452 99.7979 21.157C98.744 21.6444 97.5675 21.9125 96.293 21.9125ZM96.9548 20.0115C97.494 20.0115 97.9107 19.9628 98.1067 19.914C98.2783 19.8653 98.5234 19.8166 98.8175 19.646C99.0381 19.5241 99.1852 19.4022 99.2832 19.3048C99.4548 19.1585 99.5528 19.0611 99.6509 18.9636C99.8224 18.793 99.945 18.6224 100.068 18.4762C100.362 18.1106 100.607 17.745 100.876 17.3063C101.072 16.9652 101.269 16.624 101.44 16.234C101.612 15.8685 101.759 15.4785 101.906 15.0886C102.273 14.0894 102.469 13.1876 102.469 12.4321C102.469 11.6766 102.298 11.0917 101.955 10.6531C101.612 10.2388 101.072 10.0194 100.362 10.0194C99.9695 10.0194 99.5773 10.0682 99.1607 10.19C99.1607 10.19 99.1607 10.19 99.1361 10.19C98.2783 10.4337 97.5185 11.2136 97.4205 11.3355C97.3224 11.4329 97.0283 11.7741 96.6116 12.4565C96.0724 13.3582 95.7293 14.1869 95.4842 14.8936C95.141 15.8928 94.945 16.7946 94.9204 17.5501C94.8959 18.3056 95.0675 18.9148 95.4106 19.3535C95.7538 19.7922 96.2685 20.0115 96.9548 20.0115Z" fill="#1B2A47"/>
<path d="M91.097 40.2638C89.7735 40.2638 88.7441 40.0201 88.0578 39.5083C87.3715 38.9965 86.9794 38.241 86.9058 37.2174C86.8323 36.1939 87.0774 34.9022 87.6166 33.3668C88.1558 31.8314 88.8176 30.5642 89.6264 29.5406C90.4353 28.517 91.3421 27.7615 92.396 27.2497C93.45 26.7379 94.6264 26.4942 95.901 26.4942C97.2245 26.4942 98.2294 26.7623 98.9157 27.2741C99.6019 27.7859 99.9941 28.5657 100.068 29.5893C100.141 30.6129 99.8961 31.9046 99.3568 33.4399C98.8176 34.9509 98.1559 36.2426 97.347 37.2662C96.5382 38.2898 95.6068 39.0453 94.5774 39.557C93.548 40.0688 92.3715 40.2638 91.097 40.2638ZM91.7588 38.3629C92.298 38.3629 92.7147 38.3141 92.9107 38.2654C93.0823 38.2166 93.3274 38.1679 93.6215 37.9973C93.8421 37.8754 93.9892 37.7536 94.0872 37.6561C94.2588 37.5099 94.3568 37.4124 94.4549 37.3149C94.6264 37.1443 94.749 36.9737 94.8715 36.8275C95.1657 36.4619 95.4108 36.0964 95.6804 35.6577C95.8764 35.3165 96.0725 34.9753 96.2441 34.5854C96.4157 34.2198 96.5627 33.8299 96.7098 33.4399C97.0774 32.4407 97.2735 31.539 97.2735 30.7835C97.2735 30.028 97.1019 29.4431 96.7588 29.0044C96.4157 28.5901 95.8764 28.3708 95.1657 28.3708C94.7735 28.3708 94.3813 28.4195 93.9647 28.5414C93.9647 28.5414 93.9647 28.5414 93.9402 28.5414C93.0823 28.7851 92.3225 29.5649 92.2245 29.6868C92.1264 29.7843 91.8323 30.1255 91.4156 30.8079C90.8764 31.7096 90.5333 32.5382 90.2882 33.245C89.9451 34.2442 89.749 35.1459 89.7245 35.9014C89.7 36.6569 89.8715 37.2662 90.2147 37.7049C90.5578 38.1435 91.0725 38.3629 91.7588 38.3629Z" fill="#1B2A47"/>
<path d="M125.632 40.2882C124.308 40.2882 123.279 40.0445 122.592 39.5327C121.906 39.0209 121.514 38.2654 121.44 37.2418C121.367 36.2183 121.612 34.9266 122.151 33.3912C122.69 31.8559 123.352 30.5886 124.161 29.565C124.97 28.5414 125.877 27.7859 126.931 27.2741C127.985 26.7623 129.161 26.5186 130.435 26.5186C131.759 26.5186 132.764 26.7867 133.45 27.2985C134.136 27.8103 134.529 28.5901 134.602 29.6137C134.676 30.6373 134.431 31.929 133.891 33.4643C133.352 34.9753 132.69 36.267 131.882 37.2906C131.073 38.3142 130.141 39.0697 129.112 39.5815C128.083 40.0932 126.906 40.2882 125.632 40.2882ZM126.293 38.4117C126.833 38.4117 127.249 38.3629 127.445 38.3142C127.617 38.2654 127.862 38.2167 128.156 38.0461C128.377 37.9242 128.524 37.8024 128.622 37.7049C128.793 37.5587 128.891 37.4612 128.989 37.3637C129.161 37.1931 129.284 37.0225 129.406 36.8763C129.7 36.5107 129.945 36.1452 130.215 35.7065C130.411 35.3653 130.607 35.0241 130.779 34.6342C130.95 34.2686 131.097 33.8786 131.244 33.4887C131.612 32.4895 131.808 31.5878 131.808 30.8323C131.808 30.0768 131.636 29.4919 131.293 29.0532C130.95 28.6389 130.411 28.4196 129.7 28.4196C129.308 28.4196 128.916 28.4683 128.499 28.5901C128.499 28.5901 128.499 28.5901 128.475 28.5901C127.617 28.8339 126.857 29.6137 126.759 29.7356C126.661 29.8331 126.367 30.1743 125.95 30.8566C125.411 31.7584 125.068 32.587 124.823 33.2937C124.48 34.293 124.284 35.1947 124.259 35.9502C124.235 36.7057 124.406 37.315 124.749 37.7536C125.092 38.1923 125.607 38.4117 126.293 38.4117Z" fill="#FF515E"/>
<path d="M106.391 21.6688C106.391 21.3763 106.391 20.8889 106.416 20.1578C106.44 19.2804 106.465 18.4031 106.465 17.5257C106.465 16.6484 106.489 15.7954 106.489 15.0155C106.489 13.6751 106.465 12.286 106.44 10.8481C106.44 10.385 106.416 9.94635 106.416 9.50767C106.416 9.06899 106.391 8.65469 106.391 8.28912H112.127C113.352 8.28912 114.382 8.38661 115.141 8.60595C115.926 8.82528 116.514 9.19085 116.906 9.70264C117.298 10.2388 117.494 10.9699 117.494 11.896C117.494 12.7246 117.347 13.407 117.029 13.9432C116.735 14.4794 116.269 14.8693 115.681 15.1374C115.092 15.4054 114.357 15.5273 113.475 15.5517V15.771C114.627 15.8198 115.485 16.0635 116.048 16.5021C116.612 16.9408 117.004 17.6476 117.249 18.598C117.323 18.9392 117.445 19.451 117.641 20.1334C117.837 20.8158 117.985 21.3276 118.107 21.6688H115.239C115.19 21.4251 115.117 21.1326 115.019 20.8158C114.749 19.7191 114.578 18.988 114.529 18.6224C114.382 18.0863 114.185 17.6963 113.989 17.4039C113.769 17.1114 113.499 16.9164 113.181 16.7946C112.837 16.6727 112.396 16.5996 111.833 16.5996H109.038C109.038 17.1358 109.038 17.6719 109.038 18.2569C109.038 18.8418 109.038 19.4267 109.038 20.0359V21.6444H106.391V21.6688ZM111.71 14.7474C112.837 14.7474 113.622 14.5768 114.112 14.2356C114.578 13.8944 114.823 13.3095 114.823 12.5053C114.823 11.896 114.7 11.4086 114.48 11.0674C114.259 10.7262 113.916 10.4825 113.475 10.3363C113.034 10.1901 112.445 10.1169 111.71 10.1169H109.038V14.7231H111.71V14.7474Z" fill="#1B2A47"/>
<path d="M120.117 21.6688L120.141 19.3779C120.166 17.3308 120.166 15.2836 120.166 13.1877C120.166 12.0179 120.141 10.385 120.092 8.28912H123.523L128.499 16.9164C128.572 17.1114 128.67 17.282 128.744 17.4526C128.842 17.6232 128.916 17.7938 129.014 17.9644C129.332 18.6224 129.528 19.0124 129.577 19.1098H129.798C129.798 19.0611 129.773 18.988 129.773 18.9392C129.773 18.8905 129.749 18.8418 129.749 18.793C129.7 18.4518 129.651 18.0863 129.602 17.6963C129.553 17.3064 129.528 16.9652 129.528 16.624C129.528 15.3323 129.528 13.5045 129.504 11.1405C129.504 10.6044 129.504 10.1169 129.504 9.62953C129.504 9.14211 129.479 8.70343 129.479 8.31349H131.979C131.955 10.385 131.93 12.554 131.93 14.7962C131.93 16.2097 131.93 18.5006 131.955 21.7175H128.572L123.891 13.8457C123.156 12.3347 122.862 11.7498 123.009 12.0666C122.788 11.5548 122.617 11.1649 122.494 10.8481H122.273C122.322 11.1405 122.371 11.5792 122.42 12.1397C122.469 12.7246 122.518 13.1146 122.518 13.3583C122.518 15.8441 122.518 18.6224 122.543 21.6932H120.117V21.6688Z" fill="#1B2A47"/>
<path d="M82.5676 40.0445C82.5921 37.8511 82.6166 35.6577 82.6166 33.4643C82.6166 32.1483 82.6166 30.5398 82.5921 28.6632C81.6607 28.6632 80.3372 28.6632 78.6215 28.6876V26.6404H89.2588V28.6876C87.6166 28.6632 86.2931 28.6632 85.2637 28.6632C85.2637 29.1507 85.2392 29.6868 85.2392 30.2961C85.2392 30.9054 85.2392 31.5146 85.2147 32.1483V33.6837C85.2147 35.8283 85.2392 37.9486 85.2637 40.0445H82.5676Z" fill="#1B2A47"/>
<path d="M103.352 40.0445C103.695 39.1671 104.014 38.2898 104.332 37.388C104.651 36.4863 104.994 35.5846 105.313 34.6828C105.828 33.2693 106.195 32.2214 106.44 31.539L107.494 28.4926C107.592 28.1758 107.715 27.8346 107.813 27.5422C107.911 27.2253 108.033 26.9329 108.131 26.6648H112.004L111.44 37.4368H111.661L118.646 26.6648H122.568L121.98 28.2245C121.244 30.2717 120.852 31.3684 120.779 31.5634C119.455 35.3896 118.524 38.2166 117.935 40.0445H115.46C115.705 39.3377 116.122 38.1923 116.685 36.6325C116.832 36.1938 116.98 35.7308 117.151 35.2921C117.298 34.8534 117.47 34.3904 117.617 33.9761C118.156 32.4651 118.744 30.7835 119.357 28.9557H119.161L111.832 40.0688H109.43L109.896 28.9557H109.749C109.602 29.37 109.43 29.7843 109.283 30.1986C109.136 30.6129 108.965 31.0516 108.818 31.4902C108.401 32.6113 108.107 33.4399 107.911 34.0005C107.788 34.3173 107.69 34.6341 107.568 34.9509C107.47 35.2677 107.347 35.5602 107.225 35.877C106.636 37.4611 106.146 38.8747 105.754 40.0932H103.352V40.0445Z" fill="#FF515E"/>
<path d="M135.778 40.0445C135.925 38.2167 136.048 36.267 136.17 34.1954C136.219 33.4399 136.342 30.9297 136.563 26.6404H139.21C139.185 27.006 139.161 27.4203 139.136 27.859C139.112 28.2977 139.087 28.7607 139.063 29.2725C138.965 31.3197 138.842 33.1475 138.72 34.8291C138.597 36.4863 138.425 37.8267 138.229 38.8259H138.376C138.94 37.7536 139.724 36.4132 140.729 34.8047C141.734 33.1962 142.984 31.2222 144.479 28.9069C144.749 28.4926 145.019 28.0783 145.264 27.6884C145.509 27.2985 145.729 26.9573 145.95 26.6404H148.695C148.376 27.1035 148.058 27.5909 147.739 28.1027C147.396 28.6145 147.077 29.1507 146.734 29.7112C143.474 34.7316 141.293 38.1679 140.141 40.0201H135.778V40.0445Z" fill="#FF515E"/>
<path d="M145.068 40.0445C145.337 39.3864 145.705 38.3629 146.22 36.9981C146.734 35.6333 147.176 34.4148 147.543 33.3912C147.911 32.3432 148.303 31.1978 148.72 29.9792C149.136 28.7607 149.504 27.664 149.823 26.6648H159.332L158.622 28.6388H151.783L150.386 32.6844L156.808 32.6113L156.293 34.0248L149.921 33.9517L148.45 38.0704H155.411L154.7 40.0445H145.068Z" fill="#FF515E"/>
</g>
<path d="M79.4763 52.6118C79.4978 51.144 79.5085 50.0324 79.5085 49.277L79.5004 47.8443C79.4951 47.526 79.4924 47.0565 79.4924 46.4359H80.331L82.5566 51.948H82.5969L84.8064 46.4359H85.645C85.6289 47.3803 85.6208 48.3273 85.6208 49.277C85.6208 50.286 85.6343 51.3976 85.6611 52.6118H85.1289C85.1343 52.1477 85.137 51.4435 85.137 50.4992V49.6088C85.137 49.0207 85.1316 48.16 85.1209 47.0268H85.0644L82.8146 52.6118H82.3308L80.0649 47.0268H80.0165L80.0085 47.8605C79.9977 48.6375 79.9923 49.2203 79.9923 49.6088C79.9923 50.9633 79.995 51.9642 80.0004 52.6118H79.4763Z" fill="#7C8494"/>
<path d="M89.7375 52.7089C88.8612 52.7089 88.1812 52.4337 87.6974 51.8833C87.2189 51.3329 86.9797 50.5505 86.9797 49.536C86.9797 48.5269 87.2216 47.7472 87.7054 47.1968C88.1893 46.641 88.8639 46.3631 89.7294 46.3631C90.6003 46.3631 91.275 46.6383 91.7534 47.1887C92.2373 47.7391 92.4792 48.5215 92.4792 49.536C92.4792 50.5451 92.2373 51.3275 91.7534 51.8833C91.275 52.4337 90.603 52.7089 89.7375 52.7089ZM89.7456 52.2799C90.267 52.2799 90.6917 52.1693 91.0196 51.948C91.3153 51.7052 91.5411 51.3815 91.697 50.9767C91.8583 50.572 91.9389 50.0945 91.9389 49.5441C91.9389 48.9667 91.8475 48.473 91.6647 48.0629C91.4873 47.6474 91.232 47.3344 90.8987 47.1239C90.5708 46.9081 90.1783 46.8002 89.7214 46.8002C89.1515 46.8002 88.6838 46.9405 88.3183 47.2211C87.7861 47.7283 87.52 48.4945 87.52 49.5198C87.52 50.0972 87.6114 50.5936 87.7941 51.0091C87.9769 51.4246 88.235 51.7403 88.5683 51.9561C88.9016 52.172 89.294 52.2799 89.7456 52.2799Z" fill="#7C8494"/>
<path d="M95.152 52.6118C94.3295 50.3508 93.5634 48.2922 92.8538 46.4359H93.4183C93.5258 46.7489 93.7731 47.4126 94.1601 48.4271C94.9074 50.4129 95.3643 51.6755 95.531 52.2151H95.5713C95.8132 51.4597 96.4529 49.6979 97.4905 46.9297L97.6759 46.4359H98.2485C97.4636 48.4865 96.6922 50.5451 95.9342 52.6118H95.152Z" fill="#7C8494"/>
<path d="M99.2183 52.6118C99.229 51.2412 99.2344 50.2132 99.2344 49.5279C99.2344 48.848 99.229 47.8173 99.2183 46.4359H99.7827C99.7612 47.3479 99.7505 48.3785 99.7505 49.5279C99.7505 50.6773 99.7612 51.7052 99.7827 52.6118H99.2183Z" fill="#7C8494"/>
<path d="M101.502 51.6C101.508 51.1251 101.51 50.0028 101.51 48.2328C101.51 47.758 101.505 47.159 101.494 46.4359H102.155L105.179 51.0091C105.496 51.511 105.693 51.8374 105.768 51.9885H105.832C105.773 51.4165 105.744 50.9444 105.744 50.572C105.744 48.7428 105.736 47.3641 105.719 46.4359H106.252C106.236 47.2993 106.227 48.2733 106.227 49.3579C106.227 50.0594 106.233 51.144 106.244 52.6118H105.623L102.736 48.2571C102.365 47.6797 102.118 47.2696 101.994 47.0268H101.921C101.975 47.5772 102.002 47.9846 102.002 48.249C102.002 49.7545 102.007 51.2088 102.018 52.6118H101.502V51.6Z" fill="#7C8494"/>
<path d="M110.241 52.7089C109.704 52.7089 109.233 52.5875 108.83 52.3447C108.432 52.0964 108.123 51.7349 107.903 51.26C107.682 50.7798 107.572 50.2051 107.572 49.536C107.572 48.8669 107.68 48.2949 107.895 47.82C108.115 47.3452 108.43 46.9836 108.838 46.7354C109.247 46.4872 109.736 46.3631 110.306 46.3631C111.091 46.3631 111.677 46.552 112.064 46.9297C112.451 47.302 112.701 47.8389 112.814 48.5404L112.273 48.6214C112.16 48.0332 111.951 47.5826 111.644 47.2696C111.343 46.9513 110.894 46.7921 110.298 46.7921C109.766 46.7921 109.317 46.9297 108.951 47.2049C108.392 47.7229 108.112 48.4892 108.112 49.5036C108.112 50.081 108.207 50.5801 108.395 51.001C108.583 51.4219 108.844 51.743 109.177 51.9642C109.51 52.1801 109.895 52.288 110.33 52.288C110.878 52.288 111.308 52.1639 111.62 51.9157C111.738 51.8239 111.851 51.6917 111.959 51.5191C112.066 51.3464 112.152 51.171 112.217 50.9929C112.281 50.8095 112.316 50.6638 112.322 50.5559C112.322 50.4425 112.319 50.3562 112.314 50.2968C112.314 50.2537 112.311 50.2105 112.306 50.1673C112.306 50.1188 112.308 50.0945 112.314 50.0945H110.669V49.7141H112.83C112.824 49.9569 112.824 50.2321 112.83 50.5397C112.84 50.8418 112.846 51.0604 112.846 51.1953C112.862 52.0371 112.87 52.5092 112.87 52.6118H112.37L112.378 51.0739H112.346C112.217 51.6243 111.978 52.0344 111.628 52.3042C111.284 52.574 110.822 52.7089 110.241 52.7089Z" fill="#7C8494"/>
<path d="M118.724 52.7089C117.853 52.7089 117.179 52.4337 116.7 51.8833C116.222 51.3275 115.982 50.5451 115.982 49.536C115.982 48.5215 116.222 47.7391 116.7 47.1887C117.179 46.6383 117.853 46.3631 118.724 46.3631C119.439 46.3631 120.009 46.5493 120.434 46.9216C120.858 47.2885 121.143 47.82 121.288 48.5161L120.764 48.5971C120.501 47.3991 119.805 46.8002 118.676 46.8002C118.117 46.8002 117.66 46.9405 117.305 47.2211C117.052 47.4747 116.859 47.8012 116.724 48.2005C116.59 48.5944 116.523 49.0503 116.523 49.5684C116.523 50.4425 116.722 51.1143 117.119 51.5838C117.517 52.0479 118.068 52.2799 118.772 52.2799C119.278 52.2799 119.689 52.1693 120.006 51.948C120.318 51.6944 120.546 51.3032 120.692 50.7744H121.232C121.071 51.4003 120.78 51.8806 120.361 52.2151C119.942 52.5443 119.396 52.7089 118.724 52.7089Z" fill="#7C8494"/>
<path d="M124.985 52.7089C124.109 52.7089 123.429 52.4337 122.945 51.8833C122.466 51.3329 122.227 50.5505 122.227 49.536C122.227 48.5269 122.469 47.7472 122.953 47.1968C123.437 46.641 124.111 46.3631 124.977 46.3631C125.848 46.3631 126.522 46.6383 127.001 47.1887C127.485 47.7391 127.727 48.5215 127.727 49.536C127.727 50.5451 127.485 51.3275 127.001 51.8833C126.522 52.4337 125.85 52.7089 124.985 52.7089ZM124.993 52.2799C125.514 52.2799 125.939 52.1693 126.267 51.948C126.563 51.7052 126.788 51.3815 126.944 50.9767C127.106 50.572 127.186 50.0945 127.186 49.5441C127.186 48.9667 127.095 48.473 126.912 48.0629C126.735 47.6474 126.479 47.3344 126.146 47.1239C125.818 46.9081 125.426 46.8002 124.969 46.8002C124.399 46.8002 123.931 46.9405 123.566 47.2211C123.033 47.7283 122.767 48.4945 122.767 49.5198C122.767 50.0972 122.859 50.5936 123.042 51.0091C123.224 51.4246 123.482 51.7403 123.816 51.9561C124.149 52.172 124.541 52.2799 124.993 52.2799Z" fill="#7C8494"/>
<path d="M129.056 52.6118C129.077 51.144 129.088 50.0324 129.088 49.277L129.08 47.8443C129.075 47.526 129.072 47.0565 129.072 46.4359H129.91L132.136 51.948H132.176L134.386 46.4359H135.224C135.208 47.3803 135.2 48.3273 135.2 49.277C135.2 50.286 135.214 51.3976 135.241 52.6118H134.708C134.714 52.1477 134.716 51.4435 134.716 50.4992V49.6088C134.716 49.0207 134.711 48.16 134.7 47.0268H134.644L132.394 52.6118H131.91L129.644 47.0268H129.596L129.588 47.8605C129.577 48.6375 129.572 49.2203 129.572 49.6088C129.572 50.9633 129.574 51.9642 129.58 52.6118H129.056Z" fill="#7C8494"/>
<path d="M136.946 52.6118C136.957 51.2519 136.962 50.224 136.962 49.5279C136.962 48.8156 136.957 47.785 136.946 46.4359H138.994C139.817 46.4359 140.44 46.5762 140.865 46.8568C141.29 47.1374 141.502 47.642 141.502 48.3704C141.502 49.0342 141.322 49.5225 140.962 49.8355C140.607 50.1431 140.064 50.2968 139.333 50.2968H137.486C137.486 51.2627 137.495 52.0344 137.511 52.6118H136.946ZM139.115 49.9083C139.712 49.9083 140.172 49.7896 140.494 49.5522C140.822 49.3148 140.986 48.9316 140.986 48.4028C140.986 47.8632 140.828 47.4693 140.51 47.2211C140.193 46.9729 139.731 46.8487 139.123 46.8487H137.503C137.492 47.5934 137.486 48.6133 137.486 49.9083H139.115Z" fill="#7C8494"/>
<path d="M146.282 52.6118C146.169 52.2934 145.94 51.6863 145.596 50.7906H144.096H142.613C142.328 51.573 142.105 52.1801 141.943 52.6118H141.347L141.677 51.7457C142.731 49.0207 143.403 47.2508 143.693 46.4359H144.499C145.016 47.8335 145.803 49.8921 146.862 52.6118H146.282ZM145.467 50.4425C144.763 48.5917 144.319 47.3587 144.137 46.7435H144.064C143.688 47.8227 143.247 49.0557 142.742 50.4425H145.467Z" fill="#7C8494"/>
<path d="M147.837 51.6C147.843 51.1251 147.845 50.0028 147.845 48.2328C147.845 47.758 147.84 47.159 147.829 46.4359H148.49L151.514 51.0091C151.831 51.511 152.028 51.8374 152.103 51.9885H152.167C152.108 51.4165 152.079 50.9444 152.079 50.572C152.079 48.7428 152.071 47.3641 152.054 46.4359H152.587C152.571 47.2993 152.563 48.2733 152.563 49.3579C152.563 50.0594 152.568 51.144 152.579 52.6118H151.958L149.071 48.2571C148.7 47.6797 148.453 47.2696 148.329 47.0268H148.256C148.31 47.5772 148.337 47.9846 148.337 48.249C148.337 49.7545 148.342 51.2088 148.353 52.6118H147.837V51.6Z" fill="#7C8494"/>
<path d="M156.052 50.4344H155.939L155.955 50.4102C155.875 50.4263 155.786 50.4344 155.689 50.4344C155.636 50.4344 155.59 50.4183 155.552 50.3859C155.52 50.3535 155.482 50.2914 155.439 50.1997C155.23 49.795 154.853 49.0476 154.31 47.9576L153.552 46.4359H154.133L155.972 50.1754H156.084L157.705 46.4359H158.294L155.657 52.4984C155.636 52.547 155.603 52.5794 155.56 52.5956C155.517 52.6064 155.447 52.6118 155.351 52.6118H155.012L155.939 50.5478L156.052 50.4344Z" fill="#7C8494"/>
<defs>
<filter id="filter0_b_18_404" x="-30.506" y="-93" width="376.506" height="249.741" filterUnits="userSpaceOnUse" color-interpolation-filters="sRGB">
<feFlood flood-opacity="0" result="BackgroundImageFix"/>
<feGaussianBlur in="BackgroundImageFix" stdDeviation="46.5"/>
<feComposite in2="SourceAlpha" operator="in" result="effect1_backgroundBlur_18_404"/>
<feBlend mode="normal" in="SourceGraphic" in2="effect1_backgroundBlur_18_404" result="shape"/>
</filter>
<clipPath id="clip0_18_404">
<rect width="80.6375" height="33.3882" fill="white" transform="translate(78.6215 8.09412)"/>
</clipPath>
</defs>
</svg>
